<svg width="84" height="84" viewBox="0 0 84 84" fill="none" xmlns="http://www.w3.org/2000/svg">
<path fill-rule="evenodd" clip-rule="evenodd" d="M2.08419 81.8813L7.69669 61.3917C4.23419 55.3958 2.41336 48.5917 2.41544 41.6229C2.42586 19.8208 20.1675 2.08334 41.9717 2.08334C52.5529 2.08751 62.4821 6.20626 69.9509 13.6792C77.4175 21.1542 81.53 31.0875 81.5259 41.6542C81.5175 63.4563 63.7717 81.1958 41.9717 81.1958H41.955C35.3363 81.1938 28.83 79.5333 23.0529 76.3813L2.08419 81.8813Z" fill="white"/>
<path fill-rule="evenodd" clip-rule="evenodd" d="M2.08419 82.9229C1.80919 82.9229 1.54252 82.8146 1.34461 82.6146C1.08419 82.35 0.982107 81.9646 1.08002 81.6084L6.57794 61.5333C3.16961 55.4792 1.37169 48.6042 1.37586 41.625C1.38419 19.2459 19.5946 1.04169 41.9717 1.04169C52.8259 1.04585 63.0238 5.27294 70.6884 12.9438C78.3529 20.6167 82.5717 30.8125 82.5675 41.6542C82.5592 64.0313 64.3467 82.2375 41.9717 82.2375C35.3279 82.2354 28.755 80.5958 22.9217 77.4938L2.34877 82.8875C2.26127 82.9125 2.17377 82.9229 2.08419 82.9229Z" fill="white"/>
<path fill-rule="evenodd" clip-rule="evenodd" d="M41.9717 2.08333C52.5529 2.0875 62.4821 6.20625 69.9509 13.6792C77.4175 21.1542 81.53 31.0875 81.5259 41.6542C81.5175 63.4562 63.7717 81.1958 41.9717 81.1958H41.955C35.3363 81.1937 28.83 79.5333 23.0529 76.3812L2.08419 81.8812L7.69669 61.3917C4.23419 55.3958 2.41336 48.5917 2.41544 41.6229C2.42586 19.8208 20.1675 2.08333 41.9717 2.08333ZM41.9717 0C19.0217 0 0.342524 18.6708 0.332107 41.6229C0.330024 48.6375 2.10086 55.55 5.45919 61.6688L0.0737739 81.3333C-0.122059 82.0521 0.0779405 82.8187 0.60294 83.3479C0.998774 83.7479 1.53419 83.9667 2.08419 83.9667C2.26127 83.9667 2.43836 83.9437 2.61336 83.8979L22.7946 78.6062C28.6863 81.6646 35.2904 83.2792 41.955 83.2812C64.9217 83.2812 83.6009 64.6083 83.6113 41.6563C83.6154 30.5333 79.2884 20.075 71.4279 12.2083C63.5634 4.33958 53.1029 0.00416667 41.9717 0Z" fill="#CFD8DC"/>
<path fill-rule="evenodd" clip-rule="evenodd" d="M65.2258 18.4C59.0175 12.1875 50.7654 8.7646 41.9821 8.76251C23.8488 8.76251 9.10086 23.5042 9.09252 41.625C9.09044 47.8354 10.8279 53.8813 14.1196 59.1167L14.9029 60.3604L11.58 72.4875L24.0238 69.225L25.2259 69.9375C30.2717 72.9333 36.0592 74.5167 41.9592 74.5188H41.9717C60.0925 74.5188 74.8404 59.775 74.8467 41.6521C74.8488 32.8708 71.4342 24.6125 65.2258 18.4Z" fill="#40C351"/>
<path fill-rule="evenodd" clip-rule="evenodd" d="M32.0842 25.0938C31.3446 23.4479 30.5654 23.4146 29.8592 23.3854C29.2821 23.3604 28.6238 23.3625 27.9654 23.3625C27.3071 23.3625 26.2363 23.6104 25.33 24.6C24.4238 25.5896 21.8696 27.9792 21.8696 32.8417C21.8696 37.7042 25.4113 42.4042 25.905 43.0625C26.3988 43.7208 32.7425 54.0187 42.7884 57.9812C51.1363 61.2729 52.8363 60.6188 54.6488 60.4542C56.4613 60.2896 60.4967 58.0646 61.3196 55.7562C62.1425 53.4479 62.1425 51.4708 61.8967 51.0583C61.6488 50.6458 60.9904 50.4 60.0029 49.9042C59.0154 49.4083 54.155 47.0187 53.2488 46.6896C52.3425 46.3604 51.6842 46.1958 51.0238 47.1854C50.3654 48.1729 48.4717 50.4 47.8946 51.0583C47.3175 51.7187 46.7404 51.8021 45.7529 51.3063C44.7654 50.8104 41.5821 49.7688 37.805 46.4021C34.8675 43.7833 32.8842 40.5479 32.3071 39.5583C31.73 38.5708 32.2446 38.0354 32.7404 37.5417C33.1842 37.0979 33.7279 36.3875 34.2238 35.8104C34.7175 35.2333 34.8821 34.8208 35.2113 34.1625C35.5404 33.5021 35.3759 32.925 35.1279 32.4312C34.8842 31.9354 32.9634 27.0479 32.0842 25.0938Z" fill="white"/>
</svg>
